<svg width="53" height="51" viewBox="0 0 53 51" fill="none" xmlns="http://www.w3.org/2000/svg">
<rect width="52.1323" height="50.7782" rx="10.8327" fill="#383838"/>
<path fill-rule="evenodd" clip-rule="evenodd" d="M23.0647 10.1154C22.1718 10.2545 21.4214 10.8178 21.0415 11.6342C20.6122 12.5568 20.7291 13.7815 21.318 14.5304C21.55 14.8255 21.9045 15.1349 22.199 15.2994L22.4764 15.4543L22.3799 15.5873C22.1795 15.8636 21.4607 16.688 20.8546 17.3363C20.665 17.5392 19.5607 18.6525 18.4007 19.8102C17.2407 20.968 16.175 22.05 16.0324 22.2148C15.8898 22.3795 15.7353 22.5541 15.689 22.6027C15.6427 22.6513 15.4661 22.8584 15.2964 23.0627C13.5413 25.1771 12.1374 27.7678 11.3672 30.3136C11.2238 30.7873 11.1151 31.2181 10.8687 32.2884C10.7305 32.8888 10.5634 34.0885 10.4969 34.9576C10.4189 35.9779 10.4642 37.8929 10.5795 38.4515C10.834 39.6835 11.2005 40.11 12.2451 40.3897C12.5685 40.4763 12.7119 40.4863 13.6681 40.4887C14.6357 40.4911 14.7472 40.4838 14.9051 40.4071C15.1661 40.2804 15.352 40.1369 15.6755 39.8127C16.0089 39.4784 16.0187 39.4393 15.8786 38.994C15.5917 38.0822 15.3635 36.9938 15.2005 35.7606C15.094 34.9549 15.0952 32.9369 15.2027 32.1799C15.3198 31.3547 15.4353 30.8097 15.6536 30.0532C15.7121 29.8503 15.7861 29.5894 15.8181 29.4736C15.9047 29.1592 15.9333 29.1731 15.8971 29.5121C15.8429 30.0179 15.8557 32.3299 15.9163 32.9828C15.9951 33.8324 16.0867 34.6517 16.1882 35.4133C16.5639 38.2327 16.8614 39.3072 17.4215 39.8674C17.9635 40.4095 18.806 40.6843 19.9314 40.686C21.5858 40.6884 22.1628 40.3148 22.6106 38.9512C22.703 38.6698 22.8471 38.159 22.9307 37.8162C23.1629 36.865 23.2845 36.4946 23.5197 36.021C23.8477 35.3606 24.2684 34.964 25.1117 34.5199C25.4176 34.3587 25.473 34.3435 25.6686 34.3664C27.486 34.5791 29.1287 34.5664 30.6167 34.3281C31.5195 34.1835 31.4745 34.1788 31.9341 34.4656C32.929 35.0865 33.3358 35.6484 33.9556 37.2579C34.2978 38.1465 34.6605 38.9429 34.8566 39.2364C35.2603 39.8404 35.8192 40.2828 36.4326 40.4839C37.0267 40.6786 38.0543 40.7472 38.768 40.6397C40.5294 40.3746 41.4887 39.2678 41.7125 37.2423C41.8162 36.3036 41.6279 34.4911 41.2472 32.7658C41.184 32.4793 41.1219 32.1961 41.1093 32.1365C41.0966 32.0768 40.981 31.6178 40.8524 31.1165C40.0543 28.0047 39.9325 27.4433 39.7975 26.2525C39.7094 25.4758 39.766 24.0542 39.9251 23.0449C40.1439 21.6576 40.1913 19.9171 40.0405 18.812C39.8888 17.7006 39.642 16.8401 39.19 15.8462C39.1375 15.7308 39.1011 15.6307 39.1091 15.6236C39.117 15.6167 39.231 15.5504 39.3623 15.4764C40.1332 15.0421 40.6498 14.3622 40.8215 13.5562C40.9118 13.1318 40.881 12.4243 40.7568 12.0727C40.4605 11.2337 39.8677 10.6162 39.0368 10.2809C38.7653 10.1714 38.6678 10.1564 38.1219 10.1403C37.6016 10.1249 37.4645 10.1354 37.1982 10.2107C36.36 10.4479 35.6535 11.1285 35.4554 11.8893C35.4243 12.0087 35.3943 12.1124 35.3887 12.1197C35.3832 12.1271 35.2545 12.0808 35.1027 12.0168C33.6649 11.4112 31.774 11.1822 29.7487 11.3683C28.6399 11.4702 27.7096 11.6602 26.7659 11.9773C26.5233 12.0589 26.3234 12.1213 26.3217 12.116C26.1455 11.544 25.9721 11.2403 25.6264 10.8985C25.0829 10.3612 24.5522 10.1429 23.718 10.1136C23.4303 10.1034 23.1363 10.1042 23.0647 10.1154Z" fill="#FDF5EC"/>
<path fill-rule="evenodd" clip-rule="evenodd" d="M34.5011 14.4033C33.8529 14.5396 33.2886 14.8513 32.816 15.334C32.4373 15.7208 32.2248 16.0814 32.011 16.7001C31.9863 16.7715 31.9535 16.7768 31.7122 16.7478C31.1671 16.6826 30.3 16.7263 29.8291 16.8428C29.7517 16.8619 29.7268 16.8377 29.682 16.6995C29.431 15.9254 28.8014 15.179 28.0831 14.8039C27.2775 14.3832 26.2799 14.3113 25.4121 14.6113C24.557 14.9069 23.802 15.6229 23.4614 16.4613C23.1627 17.1962 23.1337 18.07 23.3836 18.805C23.6836 19.6877 24.2809 20.3482 25.1331 20.7396C25.6279 20.9668 26.0315 21.0389 26.6809 21.0159C27.1321 20.9999 27.2938 20.9751 27.5784 20.8781C28.6742 20.5048 29.5212 19.5707 29.7311 18.5041L29.7809 18.2506L30.0034 18.1879C30.5957 18.0211 31.1901 17.986 31.6791 18.0889L31.9169 18.139L31.9952 18.4391C32.2152 19.2818 32.8976 20.1221 33.6793 20.5127C34.1391 20.7425 34.5647 20.8199 35.256 20.7995C35.8017 20.7835 35.9096 20.767 36.2485 20.648C37.3875 20.248 38.1363 19.3581 38.3463 18.155C38.6326 16.5142 37.691 14.9805 36.0853 14.4721C35.6998 14.35 34.9158 14.316 34.5011 14.4033ZM35.8095 15.687C36.949 16.0466 37.521 17.4377 36.9719 18.5141C36.7708 18.9083 36.2726 19.3275 35.8249 19.4793C35.3286 19.6476 34.6404 19.602 34.1874 19.3709C33.9369 19.2432 33.5396 18.854 33.4026 18.6023C33.0772 18.0044 33.0788 17.2323 33.4066 16.625C33.6392 16.194 34.201 15.7556 34.6581 15.6482C34.9694 15.5752 35.513 15.5935 35.8095 15.687ZM27.2203 15.7748C28.1556 16.0615 28.7647 17.0591 28.6029 18.0389C28.4088 19.2144 27.3008 19.987 26.1378 19.7579C25.6906 19.6698 25.3371 19.4947 25.0601 19.2241C24.2291 18.4121 24.2316 17.1116 25.0658 16.2775C25.6234 15.7199 26.4284 15.532 27.2203 15.7748ZM30.1826 19.4497C29.4625 19.5452 28.9857 19.9461 29.0484 20.4034C29.1138 20.8805 29.4864 21.3082 29.9658 21.4562C30.1259 21.5056 30.2944 21.5461 30.3403 21.5461C30.4191 21.5461 30.4232 21.578 30.4117 22.0995L30.3996 22.6529L29.7555 22.6746C29.115 22.6961 29.1108 22.6969 29.0068 22.818C28.8136 23.043 28.9064 23.3751 29.196 23.4951C29.2841 23.5315 29.7232 23.5425 30.7355 23.5335L31.4436 23.5272L32.159 23.4958C32.2663 23.3929 32.4178 23.2305 32.4178 23.0826C32.4178 22.9312 32.3946 22.8797 32.2842 22.7869C32.1593 22.6818 32.1217 22.6746 31.6983 22.6746H31.2459V22.1193V21.564L31.4767 21.5156C32.1797 21.3681 32.689 20.8465 32.6969 20.2657C32.7022 19.877 32.3998 19.6056 31.8259 19.484C31.5488 19.4253 30.5273 19.4039 30.1826 19.4497Z" fill="#131313"/>
<path fill-rule="evenodd" clip-rule="evenodd" d="M22.7339 9.03148C22.0271 9.1592 21.3727 9.50155 20.8189 10.0332C20.404 10.4315 20.1017 10.8715 19.9194 11.3427C19.3625 12.782 19.6319 14.3926 20.6104 15.4736L20.8039 15.6873L20.5064 16.0211C20.3428 16.2046 19.0771 17.5012 17.6937 18.9024C14.7938 21.8397 14.5271 22.1307 13.6419 23.3239C11.1781 26.6449 9.70108 30.5852 9.35237 34.7674C9.29325 35.4768 9.32399 37.9155 9.39814 38.3967C9.6348 39.9326 10.2421 40.8349 11.3408 41.2832C11.996 41.5506 12.1375 41.5708 13.4823 41.5897C14.3589 41.602 14.7927 41.5921 14.9561 41.5561C15.3708 41.4648 15.8139 41.2017 16.2432 40.792L16.4986 40.5483L16.6643 40.72C17.3337 41.4139 18.5263 41.8099 19.9461 41.8099C21.2274 41.8099 22.0427 41.5634 22.655 40.9906C23.281 40.405 23.5331 39.8435 24.0342 37.9191C24.406 36.4907 24.6451 36.0788 25.3383 35.6727L25.6309 35.5012L26.2625 35.5633C27.0481 35.6404 28.949 35.651 29.6313 35.582C29.9092 35.5538 30.382 35.4938 30.6819 35.4486L31.2273 35.3665L31.461 35.5212C31.7982 35.7444 32.1316 36.1043 32.3346 36.4644C32.4318 36.6368 32.6839 37.2042 32.8948 37.7253C33.6835 39.675 34.0305 40.245 34.8066 40.8659C35.4278 41.363 36.0847 41.6314 36.9609 41.7462C37.5145 41.8188 38.3764 41.8282 38.8111 41.7664C41.0001 41.4552 42.2985 40.1544 42.7396 37.8306C42.8387 37.3083 42.8354 35.8263 42.7332 35.0093C42.5484 33.5316 42.3674 32.6556 41.698 29.9982C40.9251 26.9301 40.826 26.3235 40.869 24.9241C40.8836 24.4493 40.924 23.8477 40.9587 23.5871C40.9935 23.3265 41.0497 22.9002 41.0836 22.6396C41.2008 21.7403 41.2525 20.3403 41.1983 19.5324C41.1213 18.3848 40.8827 17.154 40.5831 16.3592L40.4736 16.0688L40.7226 15.8436C41.2427 15.3729 41.6651 14.6594 41.8468 13.9448C42.0131 13.2904 41.9901 12.3418 41.793 11.7227C41.4103 10.5209 40.2824 9.45565 39.0217 9.1053C38.9059 9.07313 38.5174 9.03506 38.1584 9.0207C37.6326 8.99969 37.4362 9.00857 37.1478 9.06639C36.7625 9.14366 36.2745 9.33631 35.8943 9.56122C35.6544 9.70321 35.0174 10.2991 34.828 10.5589L34.7248 10.7004L34.4427 10.6133C34.0893 10.5041 33.2226 10.3352 32.6421 10.2623C32.0663 10.19 30.0406 10.1897 29.4207 10.2619C28.7337 10.3418 28.0125 10.4683 27.4241 10.6121C26.9542 10.7269 26.8974 10.733 26.8635 10.6723C26.7664 10.4988 26.3763 10.0754 26.1023 9.84617C25.7509 9.55212 25.0928 9.21495 24.6713 9.11313C24.3811 9.04302 23.5968 8.96339 23.2517 8.96903C23.1475 8.97072 22.9144 8.99885 22.7339 9.03148ZM24.0108 10.1461C24.7056 10.2328 25.2224 10.4989 25.6901 11.0106C25.9053 11.2461 26.1361 11.648 26.2399 11.9678C26.2738 12.0725 26.3117 12.121 26.3484 12.1069C26.3794 12.095 26.6147 12.0188 26.8713 11.9376C28.3268 11.4767 29.6775 11.2963 31.3947 11.3333C32.7993 11.3636 33.817 11.5428 34.8916 11.9487C35.1445 12.0443 35.3544 12.1178 35.358 12.1121C35.3617 12.1064 35.4062 11.9724 35.4569 11.8142C35.6919 11.0821 36.3697 10.4543 37.1871 10.2115C37.4509 10.1332 38.3039 10.1182 38.6686 10.1855C39.1886 10.2815 39.9117 10.7569 40.2696 11.2384C40.6878 11.801 40.8276 12.2353 40.8254 12.965C40.824 13.419 40.8082 13.5389 40.7109 13.8373C40.5018 14.4782 40.0538 15.0227 39.4003 15.43C39.2268 15.5381 39.0848 15.6389 39.0848 15.6539C39.0848 15.6689 39.1804 15.9066 39.2972 16.1822C39.8047 17.3798 40.0345 18.4795 40.0809 19.9341C40.1108 20.8658 40.0515 21.8817 39.905 22.9498C39.6897 24.5199 39.6706 25.7208 39.8429 26.8611C39.959 27.6294 40.1435 28.4456 40.6853 30.5878C41.2998 33.0177 41.5304 34.201 41.6535 35.5567C41.8759 38.005 41.2698 39.6079 39.8616 40.2959C39.2375 40.6009 38.98 40.6484 37.9479 40.649C37.1496 40.6495 36.9984 40.6385 36.6689 40.5555C36.0022 40.3878 35.3881 39.9846 34.9802 39.4466C34.7306 39.1174 34.3872 38.4115 33.9895 37.4095C33.3124 35.7037 32.9467 35.1636 32.0736 34.5795C31.718 34.3416 31.4859 34.2302 31.3459 34.2302C31.2796 34.2302 30.9079 34.277 30.52 34.3343C29.0968 34.5441 27.7864 34.5683 26.1415 34.4151L25.4311 34.3489L25.1309 34.4984C23.9086 35.1076 23.4091 35.7969 22.9968 37.4437C22.5902 39.0674 22.3527 39.6758 21.9682 40.079C21.5181 40.5509 20.9694 40.6954 19.7566 40.6614C18.905 40.6375 18.5511 40.5637 18.0075 40.2967C17.5507 40.0722 17.2035 39.7131 16.9785 39.2323C16.6135 38.4521 16.3193 36.8979 15.98 33.9565C15.87 33.0034 15.8633 32.8412 15.8625 31.1072C15.8619 30.0958 15.8556 29.2742 15.8485 29.2814C15.806 29.3237 15.4384 30.7272 15.3353 31.2405C15.1211 32.3071 15.1043 32.5118 15.1075 34.0197C15.1102 35.2514 15.1223 35.5078 15.2034 36.041C15.3437 36.9631 15.5635 38.015 15.7535 38.6728C15.8471 38.997 15.9239 39.3187 15.9242 39.3876C15.9246 39.4896 15.8562 39.5803 15.5557 39.8766C15.3506 40.0788 15.0841 40.2943 14.9556 40.3619L14.7245 40.4835L13.6086 40.4782C12.527 40.473 12.4811 40.4694 12.114 40.3596C11.2435 40.0992 10.8617 39.6902 10.6213 38.7602C10.4918 38.2595 10.4505 37.6657 10.4505 36.303C10.4504 34.2437 10.6778 32.6515 11.2748 30.5314C11.9482 28.1403 13.3493 25.465 15.0267 23.3676C15.713 22.5094 16.1432 22.0537 18.705 19.4709C20.9342 17.2233 21.7846 16.322 22.2664 15.6964L22.4491 15.4591L22.1689 15.2963C21.8168 15.0919 21.2849 14.5743 21.1146 14.2704C20.8569 13.8107 20.7883 13.5139 20.7883 12.8597C20.7883 12.3675 20.8037 12.2215 20.8817 11.9754C21.0961 11.2988 21.6039 10.6954 22.2083 10.3991C22.8069 10.1057 23.2215 10.0475 24.0108 10.1461Z" fill="#131313"/>
</svg>
