<svg width="107" height="20" viewBox="0 0 107 20" fill="none" xmlns="http://www.w3.org/2000/svg">
<path d="M2.23457 18.8887C1.22255 18.8887 0.602682 18.2562 0.602682 17.1935V2.32942C0.602682 1.2668 1.22255 0.634284 2.23457 0.634284H8.18021C11.4946 0.634284 13.6325 2.41798 13.6325 5.18839C13.6325 7.14919 12.1777 8.85698 10.3055 9.16059V9.26179C12.7849 9.50215 14.518 11.2858 14.518 13.702C14.518 16.9152 12.1524 18.8887 8.25612 18.8887H2.23457ZM3.86646 8.32567H6.85193C9.12899 8.32567 10.4067 7.36425 10.4067 5.6691C10.4067 4.07517 9.30609 3.17699 7.35794 3.17699H3.86646V8.32567ZM3.86646 16.346H7.50975C9.91331 16.346 11.191 15.3466 11.191 13.4743C11.191 11.6147 9.87535 10.6407 7.37059 10.6407H3.86646V16.346ZM22.2286 19.1543C18.1299 19.1543 15.7137 16.5863 15.7137 12.2346C15.7137 7.95881 18.1805 5.20104 22.0515 5.20104C25.7201 5.20104 28.2249 7.80701 28.2249 11.4503C28.2249 12.3864 27.6936 12.943 26.7574 12.943H18.851V13.0442C18.851 15.2833 20.154 16.7255 22.2033 16.7255C23.6202 16.7255 24.5436 16.2321 25.5557 14.9418C25.8846 14.5749 26.1755 14.4358 26.6183 14.4358C27.3267 14.4358 27.8833 14.8912 27.8833 15.6502C27.8833 15.8905 27.8074 16.1689 27.6683 16.4472C26.7827 18.155 24.784 19.1543 22.2286 19.1543ZM18.8763 10.8684H25.1382C25.0749 8.92023 23.8352 7.64255 22.0642 7.64255C20.2931 7.64255 19.0028 8.94553 18.8763 10.8684ZM31.5711 19.1417C30.6224 19.1417 30.0025 18.5218 30.0025 17.4845V6.80763C30.0025 5.82091 30.6097 5.21369 31.5079 5.21369C32.3808 5.21369 33.0006 5.82091 33.0006 6.80763V7.83231H33.0639C33.4307 6.26367 34.5946 5.25164 35.9355 5.25164C36.4288 5.25164 36.8084 5.37815 37.0487 5.5932C37.3397 5.83356 37.4915 6.21307 37.4915 6.73173C37.4915 7.22509 37.3397 7.59195 37.0234 7.84496C36.7198 8.11061 36.2517 8.24977 35.6319 8.26242C33.8355 8.27507 33.1524 9.40094 33.1524 11.0328V17.4845C33.1524 18.5218 32.5199 19.1417 31.5711 19.1417ZM42.2799 19.1037C39.6866 19.1037 37.8017 17.4718 37.8017 15.0556C37.8017 12.6774 39.636 11.2479 42.8997 11.0455L46.4545 10.8431V9.88166C46.4545 8.47747 45.5057 7.66785 43.9497 7.66785C42.7226 7.66785 41.9257 8.08531 41.1413 9.23649C40.8124 9.6666 40.395 9.86901 39.8637 9.86901C39.092 9.86901 38.5354 9.36299 38.5354 8.60398C38.5354 8.31302 38.6113 8.03471 38.7504 7.74375C39.4335 6.18777 41.5082 5.20104 44.0762 5.20104C47.4032 5.20104 49.5664 6.95944 49.5664 9.65395V17.5604C49.5664 18.5724 48.9213 19.1417 48.0358 19.1417C47.1755 19.1417 46.581 18.623 46.5304 17.6869V16.7508H46.4671C45.6954 18.2056 44.013 19.1037 42.2799 19.1037ZM43.2413 16.7255C45.0123 16.7255 46.4545 15.5363 46.4545 13.9171V12.8924L43.3425 13.0822C41.8245 13.1834 40.9516 13.8665 40.9516 14.9291C40.9516 16.0297 41.8751 16.7255 43.2413 16.7255ZM52.7229 15.5743V7.90821H51.8754C51.0911 7.90821 50.6103 7.44015 50.6103 6.68113C50.6103 5.93476 51.0911 5.47935 51.8754 5.47935H52.7229V3.69566C52.7229 2.68363 53.3302 2.05112 54.3042 2.05112C55.2657 2.05112 55.8729 2.68363 55.8729 3.69566V5.47935H57.3277C58.112 5.47935 58.5927 5.93476 58.5927 6.68113C58.5927 7.44015 58.112 7.90821 57.3277 7.90821H55.8729V14.8912C55.8729 15.9032 56.2271 16.346 57.1379 16.4219L57.3656 16.4472C58.2005 16.5231 58.6306 16.8773 58.6306 17.611C58.6306 18.5345 57.821 19.0278 56.3789 19.0278H56.2524C53.9121 19.0278 52.7229 17.864 52.7229 15.5743ZM61.863 19.1417C60.9143 19.1417 60.2944 18.5218 60.2944 17.4845V6.80763C60.2944 5.82091 60.9016 5.21369 61.7998 5.21369C62.6727 5.21369 63.2925 5.82091 63.2925 6.80763V7.83231H63.3558C63.7226 6.26367 64.8865 5.25164 66.2274 5.25164C66.7208 5.25164 67.1003 5.37815 67.3406 5.5932C67.6316 5.83356 67.7834 6.21307 67.7834 6.73173C67.7834 7.22509 67.6316 7.59195 67.3153 7.84496C67.0117 8.11061 66.5437 8.24977 65.9238 8.26242C64.1274 8.27507 63.4443 9.40094 63.4443 11.0328V17.4845C63.4443 18.5218 62.8118 19.1417 61.863 19.1417ZM72.5718 19.1037C69.9785 19.1037 68.0936 17.4718 68.0936 15.0556C68.0936 12.6774 69.9279 11.2479 73.1916 11.0455L76.7464 10.8431V9.88166C76.7464 8.47747 75.7976 7.66785 74.2416 7.66785C73.0145 7.66785 72.2176 8.08531 71.4333 9.23649C71.1043 9.6666 70.6869 9.86901 70.1556 9.86901C69.3839 9.86901 68.8273 9.36299 68.8273 8.60398C68.8273 8.31302 68.9032 8.03471 69.0423 7.74375C69.7255 6.18777 71.8001 5.20104 74.3681 5.20104C77.6952 5.20104 79.8584 6.95944 79.8584 9.65395V17.5604C79.8584 18.5724 79.2132 19.1417 78.3277 19.1417C77.4674 19.1417 76.8729 18.623 76.8223 17.6869V16.7508H76.759C75.9874 18.2056 74.3049 19.1037 72.5718 19.1037ZM73.5332 16.7255C75.3042 16.7255 76.7464 15.5363 76.7464 13.9171V12.8924L73.6344 13.0822C72.1164 13.1834 71.2435 13.8665 71.2435 14.9291C71.2435 16.0297 72.167 16.7255 73.5332 16.7255ZM88.037 19.1543C84.1154 19.1543 81.5854 16.4978 81.5854 12.1967C81.5854 7.92086 84.1028 5.20104 88.0117 5.20104C90.643 5.20104 92.8821 6.55463 93.5273 8.43952C93.6285 8.70518 93.6917 8.97083 93.6917 9.19854C93.6917 9.98286 93.0971 10.4636 92.3381 10.4636C91.7056 10.4636 91.3261 10.1979 90.9592 9.5654C90.2888 8.33832 89.4033 7.7564 88.1003 7.7564C86.0762 7.7564 84.7859 9.4389 84.7859 12.184C84.7859 14.9671 86.0889 16.6116 88.0876 16.6116C89.4792 16.6116 90.3394 15.9665 90.9466 14.8912C91.3767 14.1828 91.7183 13.9171 92.4014 13.9171C93.1477 13.9171 93.7297 14.4231 93.7297 15.2074C93.7297 15.4478 93.6664 15.7134 93.5399 16.0171C92.7935 17.8513 90.5671 19.1543 88.037 19.1543ZM97.2657 19.1417C96.3422 19.1417 95.6844 18.5471 95.6844 17.4845V2.03847C95.6844 0.975842 96.3422 0.381278 97.2657 0.381278C98.1891 0.381278 98.8343 0.975842 98.8343 2.03847V11.0202H98.8723L104.135 5.82091C104.54 5.3908 104.881 5.21369 105.362 5.21369C106.146 5.21369 106.741 5.80826 106.741 6.56728C106.741 7.03534 106.602 7.32629 106.171 7.7311L102.351 11.3491L106.551 16.599C106.88 17.0544 106.981 17.3327 106.981 17.7375C106.981 18.5598 106.361 19.1417 105.488 19.1417C104.869 19.1417 104.502 18.9266 104.046 18.2688L100.023 13.1707L98.8343 14.284V17.4845C98.8343 18.5471 98.1891 19.1417 97.2657 19.1417Z" fill="#FDF5EC"/>
</svg>
